# xmcd CD database file
#
# Track frame offsets:
#	150
#	17734
#	29084
#	47755
#	61994
#	83033
#	94998
#	112663
#	124606
#	148903
#	162992
#	178811
#	193352
#
# Disc length: 2879 seconds
#
# Revision: 0
# Processed by: cddbd v1.5.2PL0 Copyright (c) Steve Scherf et al.
# Submitted via: CDex 1.51
#
DISCID=b70b3d0d
DTITLE=Catherine Russell - Bring It Back
DYEAR=2014
DGENRE=Jazz
TTITLE0=Bring It Back
TTITLE1=I'm Shooting High
TTITLE2=I Let a Song Go Out of My Heart
TTITLE3=You Got to Swing and Sway
TTITLE4=Aged and Mellow
TTITLE5=Darktown Strutters' Ball
TTITLE6=Lucille
TTITLE7=You've Got Me Under Your Thumb
TTITLE8=After the Lights Go Down Low
TTITLE9=I'm Sticking With You Baby
TTITLE10=Strange as It Seems
TTITLE11=Public Melody Number One
TTITLE12=I Cover the Waterfront
EXTD=YEAR: 2014
EXTT0=
EXTT1=
EXTT2=
EXTT3=
EXTT4=
EXTT5=
EXTT6=
EXTT7=
EXTT8=
EXTT9=
EXTT10=
EXTT11=
EXTT12=
PLAYORDER=
